<svg width="38" height="38" viewBox="0 0 38 38" fill="none" xmlns="http://www.w3.org/2000/svg">
<path d="M16.625 11.875H7.125C3.19141 11.875 0 15.0664 0 19V35.625C0 36.9331 1.06689 38 2.375 38H21.375C22.6831 38 23.75 36.9331 23.75 35.625V19C23.75 15.0664 20.5586 11.875 16.625 11.875ZM11.875 30.875C8.6001 30.875 5.9375 28.2124 5.9375 24.9375C5.9375 21.6626 8.6001 19 11.875 19C15.1499 19 17.8125 21.6626 17.8125 24.9375C17.8125 28.2124 15.1499 30.875 11.875 30.875ZM16.625 2.375C16.625 1.06689 15.5581 0 14.25 0H9.5C8.19189 0 7.125 1.06689 7.125 2.375V9.5H16.625V2.375ZM28.3353 3.82805C28.4258 3.78286 28.5 3.66336 28.5 3.5625C28.5 3.46045 28.4258 3.34214 28.3353 3.29695L26.125 2.375L25.2019 0.164691C25.1579 0.0742188 25.0396 0 24.9375 0C24.8354 0 24.7171 0.0742188 24.6708 0.164691L23.75 2.375L21.5397 3.29695C21.4492 3.34214 21.375 3.46045 21.375 3.5625C21.375 3.66336 21.4492 3.78286 21.5397 3.82805L23.75 4.75L24.6708 6.96031C24.7171 7.05078 24.8354 7.125 24.9375 7.125C25.0396 7.125 25.1579 7.05078 25.2019 6.96031L26.125 4.75L28.3353 3.82805ZM33.25 4.75L34.1708 6.96031C34.2171 7.05078 34.3354 7.125 34.4375 7.125C34.5396 7.125 34.6579 7.05078 34.7019 6.96031L35.625 4.75L37.8353 3.82805C37.9258 3.78286 38 3.66336 38 3.5625C38 3.46045 37.9258 3.34214 37.8353 3.29695L35.625 2.375L34.7019 0.164691C34.6579 0.0742188 34.5396 0 34.4375 0C34.3354 0 34.2171 0.0742188 34.1708 0.164691L33.25 2.375L31.0397 3.29695C30.9492 3.34214 30.875 3.46045 30.875 3.5625C30.875 3.66336 30.9492 3.78286 31.0397 3.82805L33.25 4.75ZM35.625 16.625L34.7019 14.4147C34.6579 14.3242 34.5396 14.25 34.4375 14.25C34.3354 14.25 34.2171 14.3242 34.1708 14.4147L33.25 16.625L31.0397 17.5469C30.9492 17.5921 30.875 17.7104 30.875 17.8125C30.875 17.9134 30.9492 18.0329 31.0397 18.0781L33.25 19L34.1708 21.2103C34.2171 21.3008 34.3354 21.375 34.4375 21.375C34.5396 21.375 34.6579 21.3008 34.7019 21.2103L35.625 19L37.8353 18.0781C37.9258 18.0329 38 17.9134 38 17.8125C38 17.7104 37.9258 17.5921 37.8353 17.5469L35.625 16.625ZM33.0853 10.9531C33.1758 10.9079 33.25 10.7884 33.25 10.6875C33.25 10.5854 33.1758 10.4671 33.0853 10.4219L30.875 9.5L29.9519 7.28969C29.9079 7.19922 29.7896 7.125 29.6875 7.125C29.5854 7.125 29.4671 7.19922 29.4208 7.28969L28.5 9.5L26.2897 10.4219C26.1992 10.4671 26.125 10.5854 26.125 10.6875C26.125 10.7884 26.1992 10.9079 26.2897 10.9531L28.5 11.875L29.4208 14.0853C29.4671 14.1758 29.5854 14.25 29.6875 14.25C29.7896 14.25 29.9079 14.1758 29.9519 14.0853L30.875 11.875L33.0853 10.9531Z" fill="#646464"/>
</svg>
