<svg width="1920" height="1039" viewBox="0 0 1920 1039" fill="none" xmlns="http://www.w3.org/2000/svg">
<mask id="mask0" mask-type="alpha" maskUnits="userSpaceOnUse" x="-284" y="0" width="2488" height="1039">
<path d="M-284 0H2204V1039H-284V0Z" fill="#ECF8F8"/>
</mask>
<g mask="url(#mask0)">
<path d="M2204 -10.3641H-284V1133.05H2204V-10.3641Z" fill="url(#paint0_radial)"/>
<path d="M245.478 -118.409C245.478 -118.409 -122.798 -143.672 -88.7179 129.033C-58.7841 369.739 -373.672 278.924 -347.237 444.361C-320.802 609.668 119.004 801.533 324.005 569.507C529.006 337.351 650.037 -121.907 245.478 -118.409Z" fill="url(#paint1_linear)"/>
<path opacity="0.23" d="M-28.2028 199.898C-28.2028 199.898 2.63806 258.196 -55.2857 298.486C-113.339 338.906 -262.36 413.139 -159.859 497.995C-57.359 582.98 127.297 570.544 218.006 469.235C308.714 367.926 322.061 246.018 322.061 241.484C322.061 236.949 345.256 77.6015 255.844 44.6955C135.591 0.777712 -102.065 54.0232 -28.2028 199.898Z" fill="url(#paint2_linear)"/>
<g opacity="0.5">
<path opacity="0.5" d="M622.177 1251.08C672.066 869.547 1036.2 480.894 1565.93 293.045C2095.67 105.196 2634.22 173.858 2928.37 433.09" stroke="white" stroke-width="1.5" stroke-miterlimit="10"/>
<path opacity="0.5" d="M273.338 1209.36C345.127 820.059 766.662 411.066 1363.52 199.25C1960.38 -12.566 2556.47 35.8861 2872.65 287.474" stroke="white" stroke-width="1.5" stroke-miterlimit="10"/>
<path opacity="0.5" d="M-173.854 1196.92C-72.5198 797.258 426.894 362.873 1114.98 118.928C1803.07 -125.017 2476.38 -106.491 2821.98 134.733" stroke="white" stroke-width="1.5" stroke-miterlimit="10"/>
</g>
<path d="M104.62 473.38C107.471 473.38 109.674 475.453 109.674 478.303C109.674 481.024 107.471 483.226 104.62 483.226C101.769 483.226 99.5662 481.153 99.5662 478.303C99.5662 475.583 101.769 473.38 104.62 473.38ZM79.2216 453.818C81.0358 453.818 82.5908 455.373 82.5908 457.057C82.5908 458.87 81.0358 460.295 79.2216 460.295C77.4075 460.295 75.8525 458.741 75.8525 457.057C75.8525 455.243 77.4075 453.818 79.2216 453.818ZM104.62 435.81C106.434 435.81 107.989 437.365 107.989 439.049C107.989 440.863 106.434 442.288 104.62 442.288C102.806 442.288 101.251 440.733 101.251 439.049C101.251 437.365 102.676 435.81 104.62 435.81ZM202.455 396.815C204.27 396.815 205.825 398.37 205.825 400.054C205.825 401.868 204.27 403.293 202.455 403.293C200.641 403.293 199.086 401.738 199.086 400.054C199.086 398.37 200.641 396.815 202.455 396.815ZM199.086 352.898C200.123 352.898 200.771 353.545 200.771 354.582C200.771 355.618 200.123 356.266 199.086 356.266C198.05 356.266 197.402 355.618 197.402 354.582C197.402 353.545 198.179 352.898 199.086 352.898ZM-160.507 508.229C-159.86 508.229 -159.082 508.748 -159.082 509.654C-159.082 510.561 -159.6 511.08 -160.507 511.08C-161.415 511.08 -161.933 510.561 -161.933 509.654C-161.933 508.618 -161.155 508.229 -160.507 508.229ZM-155.195 486.465C-154.547 486.465 -153.769 486.983 -153.769 487.76C-153.769 488.538 -154.287 489.056 -155.195 489.056C-156.102 489.056 -156.62 488.538 -156.62 487.76C-156.62 486.983 -155.842 486.465 -155.195 486.465ZM-179.945 488.926C-178.779 488.926 -178.001 489.704 -178.001 490.74C-178.001 491.906 -178.779 492.554 -179.945 492.554C-181.111 492.554 -181.889 491.776 -181.889 490.74C-181.889 489.704 -180.852 488.926 -179.945 488.926ZM7.4325 401.738C9.76498 401.738 11.5792 403.552 11.5792 405.754C11.5792 407.957 9.63541 409.771 7.4325 409.771C5.10001 409.771 3.28583 407.957 3.28583 405.754C3.28583 403.552 5.10001 401.738 7.4325 401.738ZM-15.3741 421.301C-14.3375 421.301 -13.6896 421.948 -13.6896 422.985C-13.6896 424.021 -14.3375 424.669 -15.3741 424.669C-16.4108 424.669 -17.0587 424.021 -17.0587 422.985C-17.0587 421.948 -16.1516 421.301 -15.3741 421.301ZM3.15625 450.579C4.97043 450.579 6.52542 452.134 6.52542 453.818C6.52542 455.632 4.97043 457.057 3.15625 457.057C1.3421 457.057 -0.212921 455.502 -0.212921 453.818C-0.212921 452.004 1.3421 450.579 3.15625 450.579ZM-253.937 430.887C-252.382 430.887 -251.345 432.183 -251.345 433.349C-251.345 434.774 -252.641 435.81 -253.937 435.81C-255.492 435.81 -256.529 434.515 -256.529 433.349C-256.529 432.053 -255.492 430.887 -253.937 430.887ZM-251.216 494.108C-249.661 494.108 -248.624 495.404 -248.624 496.57C-248.624 497.736 -249.92 499.031 -251.216 499.031C-252.771 499.031 -253.807 497.736 -253.807 496.57C-253.807 495.404 -252.771 494.108 -251.216 494.108ZM-213.248 459.259C-212.859 459.259 -212.6 459.518 -212.6 459.907C-212.6 460.295 -212.859 460.555 -213.248 460.555C-213.637 460.555 -213.896 460.295 -213.896 459.907C-214.025 459.518 -213.507 459.259 -213.248 459.259ZM-283.871 387.099C-282.705 387.099 -281.927 387.876 -281.927 388.913C-281.927 390.079 -282.705 390.727 -283.871 390.727C-285.037 390.727 -285.815 389.949 -285.815 388.913C-285.944 388.006 -285.037 387.099 -283.871 387.099ZM170.319 243.686C171.355 243.686 172.003 244.334 172.003 245.37C172.003 246.407 171.355 247.054 170.319 247.054C169.282 247.054 168.634 246.407 168.634 245.37C168.634 244.334 169.541 243.686 170.319 243.686ZM120.688 246.925C122.114 246.925 123.15 248.091 123.15 249.257C123.15 250.682 121.984 251.589 120.688 251.589C119.263 251.589 118.226 250.423 118.226 249.257C118.097 248.091 119.263 246.925 120.688 246.925ZM128.982 272.965C129.37 272.965 129.759 273.353 129.759 273.742C129.759 274.131 129.37 274.519 128.982 274.519C128.593 274.519 128.204 274.131 128.204 273.742C128.204 273.483 128.593 272.965 128.982 272.965ZM117.967 305.611C119.781 305.611 121.336 307.166 121.336 308.85C121.336 310.664 119.781 312.089 117.967 312.089C116.153 312.089 114.598 310.534 114.598 308.85C114.598 307.036 116.153 305.611 117.967 305.611ZM208.416 194.845C209.842 194.845 210.878 196.011 210.878 197.177C210.878 198.602 209.712 199.509 208.416 199.509C207.12 199.509 205.954 198.343 205.954 197.177C205.825 196.011 206.991 194.845 208.416 194.845ZM-55.9337 173.599C-54.1196 173.599 -52.5646 175.153 -52.5646 176.838C-52.5646 178.651 -54.1196 180.076 -55.9337 180.076C-57.7479 180.076 -59.3029 178.522 -59.3029 176.838C-59.3029 175.153 -57.7479 173.599 -55.9337 173.599ZM-28.7213 170.36C-26.9071 170.36 -25.3521 171.915 -25.3521 173.599C-25.3521 175.413 -26.9071 176.838 -28.7213 176.838C-30.5354 176.838 -32.0904 175.283 -32.0904 173.599C-32.0904 171.915 -30.7946 170.36 -28.7213 170.36ZM-38.1808 150.927C-36.7554 150.927 -35.7187 152.093 -35.7187 153.259C-35.7187 154.684 -36.885 155.591 -38.1808 155.591C-39.4767 155.591 -40.6429 154.425 -40.6429 153.259C-40.6429 151.964 -39.4767 150.927 -38.1808 150.927ZM-40.6429 193.291C-39.6062 193.291 -38.9583 193.938 -38.9583 194.975C-38.9583 196.011 -39.6062 196.659 -40.6429 196.659C-41.6796 196.659 -42.3275 196.011 -42.3275 194.975C-42.3275 193.938 -41.6796 193.291 -40.6429 193.291ZM-180.852 157.405C-179.815 157.405 -179.167 158.053 -179.167 159.089C-179.167 160.126 -179.815 160.773 -180.852 160.773C-181.889 160.773 -182.537 160.126 -182.537 159.089C-182.537 158.053 -181.759 157.405 -180.852 157.405ZM-175.669 141.082C-174.632 141.082 -173.984 141.729 -173.984 142.766C-173.984 143.802 -174.632 144.45 -175.669 144.45C-176.705 144.45 -177.353 143.802 -177.353 142.766C-177.353 141.859 -176.705 141.082 -175.669 141.082ZM-190.96 147.689C-189.923 147.689 -189.275 148.336 -189.275 149.373C-189.275 150.409 -189.923 151.057 -190.96 151.057C-191.996 151.057 -192.644 150.409 -192.644 149.373C-192.644 148.336 -191.867 147.689 -190.96 147.689ZM-138.608 172.044C-137.571 172.044 -136.923 172.692 -136.923 173.728C-136.923 174.765 -137.571 175.413 -138.608 175.413C-139.645 175.413 -140.292 174.765 -140.292 173.728C-140.292 172.822 -139.515 172.044 -138.608 172.044ZM-126.816 142.766C-125.779 142.766 -125.131 143.413 -125.131 144.45C-125.131 145.486 -125.779 146.134 -126.816 146.134C-127.852 146.134 -128.5 145.486 -128.5 144.45C-128.5 143.543 -127.723 142.766 -126.816 142.766ZM-145.346 154.166C-144.31 154.166 -143.662 154.814 -143.662 155.85C-143.662 156.887 -144.31 157.535 -145.346 157.535C-146.383 157.535 -147.031 156.887 -147.031 155.85C-147.031 154.944 -146.253 154.166 -145.346 154.166ZM-116.579 164.012C-115.542 164.012 -114.894 164.66 -114.894 165.696C-114.894 166.733 -115.542 167.38 -116.579 167.38C-117.615 167.38 -118.263 166.733 -118.263 165.696C-118.263 164.66 -117.615 164.012 -116.579 164.012ZM261.545 -3.75659C263.36 -3.75659 264.915 -2.20198 264.915 -0.517814C264.915 1.2959 263.36 2.72096 261.545 2.72096C259.731 2.72096 258.176 1.16635 258.176 -0.517814C258.176 -2.33153 259.731 -3.75659 261.545 -3.75659ZM282.667 5.95974C284.093 5.95974 285.13 7.1257 285.13 8.29166C285.13 9.71672 283.963 10.6236 282.667 10.6236C281.372 10.6236 280.205 9.45762 280.205 8.29166C280.076 6.99615 281.242 5.95974 282.667 5.95974ZM260.768 31.87C261.157 31.87 261.545 32.2586 261.545 32.6473C261.545 33.0359 261.157 33.4246 260.768 33.4246C260.379 33.4246 259.99 33.0359 259.99 32.6473C259.861 32.3882 260.25 31.87 260.768 31.87ZM248.069 23.9673C249.105 23.9673 249.753 24.6151 249.753 25.6515C249.753 26.6879 249.105 27.3357 248.069 27.3357C247.032 27.3357 246.384 26.6879 246.384 25.6515C246.384 24.4855 247.162 23.9673 248.069 23.9673ZM260.768 17.3602C261.157 17.3602 261.545 17.7489 261.545 18.1375C261.545 18.5262 261.157 18.9149 260.768 18.9149C260.379 18.9149 259.99 18.5262 259.99 18.1375C259.861 17.6193 260.25 17.3602 260.768 17.3602ZM297.829 35.2383C301.068 35.2383 303.66 37.6998 303.66 40.809C303.66 43.9182 301.068 46.3797 297.829 46.3797C294.589 46.3797 291.997 43.9182 291.997 40.809C291.997 37.8293 294.719 35.2383 297.829 35.2383ZM1871.23 822.391C1874.34 822.391 1876.93 824.723 1876.93 827.832C1876.93 830.812 1874.47 833.273 1871.23 833.273C1868.12 833.273 1865.53 830.941 1865.53 827.832C1865.53 824.852 1867.99 822.391 1871.23 822.391ZM1842.46 800.238C1844.54 800.238 1846.22 801.922 1846.22 803.865C1846.22 805.808 1844.54 807.492 1842.46 807.492C1840.39 807.492 1838.7 805.808 1838.7 803.865C1838.7 801.922 1840.52 800.238 1842.46 800.238ZM1871.23 780.028C1873.3 780.028 1874.99 781.712 1874.99 783.655C1874.99 785.598 1873.3 787.283 1871.23 787.283C1869.16 787.283 1867.47 785.598 1867.47 783.655C1867.47 781.712 1869.03 780.028 1871.23 780.028ZM1981.63 735.98C1983.71 735.98 1985.39 737.664 1985.39 739.608C1985.39 741.551 1983.71 743.235 1981.63 743.235C1979.56 743.235 1977.88 741.551 1977.88 739.608C1977.88 737.664 1979.56 735.98 1981.63 735.98ZM1977.88 686.362C1979.04 686.362 1979.82 687.14 1979.82 688.176C1979.82 689.342 1979.04 689.99 1977.88 689.99C1976.71 689.99 1975.93 689.212 1975.93 688.176C1975.93 687.269 1976.71 686.362 1977.88 686.362ZM1572.02 861.645C1572.8 861.645 1573.58 862.293 1573.58 863.199C1573.58 864.106 1572.93 864.754 1572.02 864.754C1571.11 864.754 1570.47 864.106 1570.47 863.199C1570.47 862.293 1571.24 861.645 1572.02 861.645ZM1578.11 837.03C1578.89 837.03 1579.67 837.678 1579.67 838.455C1579.67 839.233 1579.02 839.88 1578.11 839.88C1577.2 839.88 1576.56 839.233 1576.56 838.455C1576.56 837.678 1577.33 837.03 1578.11 837.03ZM1550.12 840.01C1551.42 840.01 1552.32 840.917 1552.32 842.083C1552.32 843.378 1551.42 844.155 1550.12 844.155C1548.83 844.155 1547.92 843.249 1547.92 842.083C1547.92 840.787 1549.09 840.01 1550.12 840.01ZM1761.47 741.421C1764.19 741.421 1766.14 743.494 1766.14 745.956C1766.14 748.547 1763.93 750.49 1761.47 750.49C1758.75 750.49 1756.81 748.417 1756.81 745.956C1756.81 743.624 1759.01 741.421 1761.47 741.421ZM1735.81 763.575C1736.98 763.575 1737.76 764.352 1737.76 765.388C1737.76 766.554 1736.98 767.202 1735.81 767.202C1734.65 767.202 1733.87 766.425 1733.87 765.388C1733.87 764.352 1734.91 763.575 1735.81 763.575ZM1756.81 796.61C1758.88 796.61 1760.57 798.294 1760.57 800.238C1760.57 802.181 1758.88 803.865 1756.81 803.865C1754.73 803.865 1753.05 802.181 1753.05 800.238C1753.05 798.165 1754.73 796.61 1756.81 796.61ZM1367.28 794.797C1370.65 794.797 1373.24 797.388 1373.24 800.497C1373.24 803.736 1370.52 806.197 1367.28 806.197C1363.91 806.197 1361.32 803.606 1361.32 800.497C1361.19 797.388 1363.91 794.797 1367.28 794.797ZM1411.6 755.543C1414.45 755.543 1416.78 757.745 1416.78 760.595C1416.78 763.316 1414.45 765.648 1411.6 765.648C1408.75 765.648 1406.41 763.445 1406.41 760.595C1406.41 757.874 1408.62 755.543 1411.6 755.543ZM1370.26 765.777C1372.72 765.777 1374.8 767.72 1374.8 770.182C1374.8 772.514 1372.72 774.587 1370.26 774.587C1367.8 774.587 1365.72 772.643 1365.72 770.182C1365.6 767.72 1367.67 765.777 1370.26 765.777ZM1407.06 791.817C1408.36 791.817 1409.26 792.724 1409.26 793.89C1409.26 795.185 1408.36 795.962 1407.06 795.962C1405.77 795.962 1404.86 795.056 1404.86 793.89C1404.86 792.724 1405.77 791.817 1407.06 791.817ZM1466.67 774.457C1468.35 774.457 1469.65 775.882 1469.65 777.307C1469.65 778.862 1468.23 780.157 1466.67 780.157C1464.99 780.157 1463.69 778.732 1463.69 777.307C1463.69 775.882 1464.99 774.457 1466.67 774.457ZM1469.65 845.71C1471.34 845.71 1472.63 847.135 1472.63 848.56C1472.63 850.115 1471.21 851.41 1469.65 851.41C1467.97 851.41 1466.67 849.985 1466.67 848.56C1466.67 847.135 1467.97 845.71 1469.65 845.71ZM1512.54 806.456C1513.06 806.456 1513.32 806.715 1513.32 807.233C1513.32 807.752 1513.06 808.011 1512.54 808.011C1512.02 808.011 1511.77 807.752 1511.77 807.233C1511.77 806.715 1512.15 806.456 1512.54 806.456ZM1284.99 816.691C1285.51 816.691 1285.77 816.95 1285.77 817.468C1285.77 817.986 1285.51 818.245 1284.99 818.245C1284.48 818.245 1284.22 817.986 1284.22 817.468C1284.22 816.95 1284.61 816.691 1284.99 816.691ZM1432.72 724.968C1434.02 724.968 1434.92 725.875 1434.92 727.041C1434.92 728.337 1434.02 729.114 1432.72 729.114C1431.42 729.114 1430.52 728.207 1430.52 727.041C1430.52 725.875 1431.55 724.968 1432.72 724.968ZM1945.35 563.159C1946.52 563.159 1947.29 563.936 1947.29 564.973C1947.29 566.139 1946.52 566.786 1945.35 566.786C1944.18 566.786 1943.41 566.009 1943.41 564.973C1943.54 563.936 1944.44 563.159 1945.35 563.159ZM1889.24 567.046C1890.8 567.046 1892.09 568.341 1892.09 569.766C1892.09 571.191 1890.8 572.487 1889.24 572.487C1887.69 572.487 1886.39 571.191 1886.39 569.766C1886.52 568.212 1887.69 567.046 1889.24 567.046ZM1898.7 596.324C1899.22 596.324 1899.61 596.842 1899.61 597.231C1899.61 597.749 1899.09 598.138 1898.7 598.138C1898.18 598.138 1897.79 597.62 1897.79 597.231C1897.79 596.842 1898.31 596.324 1898.7 596.324ZM1886.26 633.117C1888.33 633.117 1890.02 634.801 1890.02 636.744C1890.02 638.687 1888.33 640.372 1886.26 640.372C1884.19 640.372 1882.5 638.687 1882.5 636.744C1882.5 634.801 1884.32 633.117 1886.26 633.117ZM1988.24 508.229C1989.8 508.229 1991.09 509.525 1991.09 510.95C1991.09 512.505 1989.8 513.671 1988.24 513.671C1986.69 513.671 1985.39 512.375 1985.39 510.95C1985.39 509.395 1986.69 508.229 1988.24 508.229ZM1690.07 484.133C1692.15 484.133 1693.83 485.817 1693.83 487.76C1693.83 489.704 1692.15 491.388 1690.07 491.388C1688 491.388 1686.31 489.704 1686.31 487.76C1686.31 485.817 1688.13 484.133 1690.07 484.133ZM1720.65 480.505C1722.73 480.505 1724.41 482.19 1724.41 484.133C1724.41 486.076 1722.73 487.76 1720.65 487.76C1718.58 487.76 1716.9 486.076 1716.9 484.133C1716.9 482.19 1718.45 480.505 1720.65 480.505ZM1710.16 458.482C1711.71 458.482 1713.01 459.777 1713.01 461.202C1713.01 462.757 1711.71 463.923 1710.16 463.923C1708.6 463.923 1707.31 462.627 1707.31 461.202C1707.31 459.648 1708.6 458.482 1710.16 458.482ZM1707.31 506.286C1708.47 506.286 1709.25 507.063 1709.25 508.1C1709.25 509.266 1708.47 509.914 1707.31 509.914C1706.14 509.914 1705.36 509.136 1705.36 508.1C1705.36 507.063 1706.14 506.286 1707.31 506.286ZM1549.09 465.866C1550.25 465.866 1551.03 466.643 1551.03 467.68C1551.03 468.846 1550.25 469.494 1549.09 469.494C1547.92 469.494 1547.14 468.716 1547.14 467.68C1547.14 466.514 1548.18 465.866 1549.09 465.866ZM1554.92 447.599C1556.08 447.599 1556.86 448.377 1556.86 449.413C1556.86 450.45 1556.08 451.227 1554.92 451.227C1553.75 451.227 1552.97 450.45 1552.97 449.413C1552.97 448.377 1553.75 447.599 1554.92 447.599ZM1537.68 454.854C1538.85 454.854 1539.63 455.632 1539.63 456.668C1539.63 457.704 1538.85 458.482 1537.68 458.482C1536.52 458.482 1535.74 457.704 1535.74 456.668C1535.87 455.502 1536.65 454.854 1537.68 454.854ZM1596.77 482.319C1597.94 482.319 1598.72 483.096 1598.72 484.133C1598.72 485.299 1597.94 485.947 1596.77 485.947C1595.61 485.947 1594.83 485.169 1594.83 484.133C1594.96 483.096 1595.74 482.319 1596.77 482.319ZM1610.12 449.284C1611.29 449.284 1612.06 450.061 1612.06 451.097C1612.06 452.263 1611.29 452.911 1610.12 452.911C1608.95 452.911 1608.18 452.134 1608.18 451.097C1608.18 450.061 1609.08 449.284 1610.12 449.284ZM1589.13 462.109C1590.29 462.109 1591.07 462.887 1591.07 463.923C1591.07 465.089 1590.29 465.737 1589.13 465.737C1587.96 465.737 1587.18 464.959 1587.18 463.923C1587.18 463.016 1588.22 462.109 1589.13 462.109ZM1621.52 473.121C1622.69 473.121 1623.47 473.898 1623.47 474.935C1623.47 476.101 1622.69 476.748 1621.52 476.748C1620.36 476.748 1619.58 475.971 1619.58 474.935C1619.71 473.898 1620.49 473.121 1621.52 473.121ZM2048.37 283.847C2050.44 283.847 2052.13 285.531 2052.13 287.474C2052.13 289.418 2050.44 291.102 2048.37 291.102C2046.3 291.102 2044.61 289.418 2044.61 287.474C2044.48 285.531 2046.3 283.847 2048.37 283.847ZM2048.37 263.637C2049.54 263.637 2050.31 264.414 2050.31 265.451C2050.31 266.617 2049.54 267.264 2048.37 267.264C2047.2 267.264 2046.43 266.487 2046.43 265.451C2046.43 264.544 2047.2 263.637 2048.37 263.637ZM2072.08 294.988C2073.64 294.988 2074.93 296.284 2074.93 297.709C2074.93 299.263 2073.64 300.429 2072.08 300.429C2070.53 300.429 2069.23 299.134 2069.23 297.709C2069.23 296.154 2070.53 294.988 2072.08 294.988ZM2047.33 324.267C2047.85 324.267 2048.24 324.785 2048.24 325.174C2048.24 325.692 2047.72 326.081 2047.33 326.081C2046.81 326.081 2046.43 325.562 2046.43 325.174C2046.43 324.785 2046.94 324.267 2047.33 324.267ZM2033.08 315.069C2034.25 315.069 2035.02 315.846 2035.02 316.882C2035.02 317.919 2034.25 318.696 2033.08 318.696C2031.91 318.696 2031.14 317.919 2031.14 316.882C2031.14 315.846 2032.04 315.069 2033.08 315.069ZM2047.33 307.684C2047.85 307.684 2048.24 308.202 2048.24 308.591C2048.24 309.109 2047.72 309.498 2047.33 309.498C2046.81 309.498 2046.43 308.98 2046.43 308.591C2046.43 308.202 2046.94 307.684 2047.33 307.684ZM2089.32 328.153C2092.95 328.153 2095.93 331.003 2095.93 334.501C2095.93 337.999 2092.95 340.849 2089.32 340.849C2085.69 340.849 2082.71 337.999 2082.71 334.501C2082.71 331.003 2085.69 328.153 2089.32 328.153ZM1981.63 107.398C1982.8 107.398 1983.58 108.176 1983.58 109.212C1983.58 110.378 1982.8 111.026 1981.63 111.026C1980.47 111.026 1979.69 110.248 1979.69 109.212C1979.82 108.305 1980.6 107.398 1981.63 107.398ZM1966.34 125.795C1968.42 125.795 1970.1 127.479 1970.1 129.422C1970.1 131.365 1968.42 133.049 1966.34 133.049C1964.27 133.049 1962.59 131.365 1962.59 129.422C1962.59 127.349 1964.27 125.795 1966.34 125.795ZM1961.68 101.957C1963.23 101.957 1964.53 103.253 1964.53 104.678C1964.53 106.103 1963.23 107.398 1961.68 107.398C1960.12 107.398 1958.83 106.103 1958.83 104.678C1958.83 103.253 1960.12 101.957 1961.68 101.957ZM1990.19 123.981C1991.74 123.981 1993.04 125.276 1993.04 126.701C1993.04 128.256 1991.74 129.422 1990.19 129.422C1988.63 129.422 1987.34 128.126 1987.34 126.701C1987.34 125.147 1988.63 123.981 1990.19 123.981ZM2006.38 101.957C2007.55 101.957 2008.33 102.734 2008.33 103.771C2008.33 104.937 2007.55 105.585 2006.38 105.585C2005.22 105.585 2004.44 104.807 2004.44 103.771C2004.44 102.864 2005.35 101.957 2006.38 101.957ZM1978.78 63.3509C1980.34 63.3509 1981.63 64.6464 1981.63 66.0715C1981.63 67.6261 1980.34 68.792 1978.78 68.792C1977.23 68.792 1975.93 67.4965 1975.93 66.0715C1975.93 64.5168 1977.23 63.3509 1978.78 63.3509ZM1936.93 76.306C1938.48 76.306 1939.78 77.6015 1939.78 79.0266C1939.78 80.4516 1938.48 81.7471 1936.93 81.7471C1935.37 81.7471 1934.08 80.4516 1934.08 79.0266C1934.08 77.472 1935.37 76.306 1936.93 76.306ZM1967.25 91.0748C1967.77 91.0748 1968.16 91.593 1968.16 91.9817C1968.16 92.4999 1967.64 92.8885 1967.25 92.8885C1966.73 92.8885 1966.34 92.3703 1966.34 91.9817C1966.34 91.3339 1966.86 91.0748 1967.25 91.0748ZM1953.13 175.542C1954.29 175.542 1955.07 176.319 1955.07 177.356C1955.07 178.522 1954.29 179.17 1953.13 179.17C1951.96 179.17 1951.18 178.392 1951.18 177.356C1951.18 176.319 1952.09 175.542 1953.13 175.542ZM1975.03 173.599C1975.54 173.599 1975.93 174.117 1975.93 174.506C1975.93 174.894 1975.41 175.413 1975.03 175.413C1974.51 175.413 1974.12 174.894 1974.12 174.506C1974.12 173.988 1974.38 173.599 1975.03 173.599ZM1961.68 160.773C1962.2 160.773 1962.59 161.292 1962.59 161.68C1962.59 162.198 1962.07 162.587 1961.68 162.587C1961.29 162.587 1960.77 162.069 1960.77 161.68C1960.64 161.292 1961.16 160.773 1961.68 160.773ZM1593.4 48.9707C1594.83 48.9707 1595.74 50.1367 1595.74 51.3026C1595.74 52.7277 1594.57 53.6346 1593.4 53.6346C1591.98 53.6346 1591.07 52.4686 1591.07 51.3026C1590.94 49.8776 1592.11 48.9707 1593.4 48.9707ZM1595.22 28.3721C1596.12 28.3721 1597.16 29.1494 1597.16 30.1858C1597.16 31.3518 1596.38 31.9995 1595.22 31.9995C1594.05 31.9995 1593.27 31.2222 1593.27 30.1858C1593.4 29.2789 1594.31 28.3721 1595.22 28.3721ZM1575.65 35.6269C1576.56 35.6269 1577.59 36.4043 1577.59 37.4407C1577.59 38.6066 1576.82 39.2544 1575.65 39.2544C1574.74 39.2544 1573.71 38.4771 1573.71 37.4407C1573.71 36.4043 1574.74 35.6269 1575.65 35.6269ZM1608.05 42.7523C1608.69 42.7523 1609.34 43.4 1609.34 44.0478C1609.34 44.6955 1608.82 45.3433 1608.05 45.3433C1607.4 45.3433 1606.75 44.6955 1606.75 44.0478C1606.88 43.2705 1607.4 42.7523 1608.05 42.7523ZM1604.42 79.9334C1605.07 79.9334 1605.71 80.5812 1605.71 81.2289C1605.71 81.8767 1605.19 82.5244 1604.42 82.5244C1603.64 82.5244 1603.12 81.8767 1603.12 81.2289C1603.12 80.5812 1603.77 79.9334 1604.42 79.9334ZM1581.22 78.7675C1582.65 78.7675 1583.55 79.9334 1583.55 81.0994C1583.55 82.2654 1582.39 83.4313 1581.22 83.4313C1580.06 83.4313 1578.89 82.2654 1578.89 81.0994C1578.89 79.9334 1579.8 78.7675 1581.22 78.7675ZM1633.7 75.14C1634.35 75.14 1635 75.7878 1635 76.4355C1635 77.0833 1634.48 77.7311 1633.7 77.7311C1633.06 77.7311 1632.41 77.0833 1632.41 76.4355C1632.41 75.7878 1632.93 75.14 1633.7 75.14ZM1421.45 261.823C1423.52 261.823 1425.2 263.507 1425.2 265.451C1425.2 267.394 1423.52 269.078 1421.45 269.078C1419.37 269.078 1417.69 267.394 1417.69 265.451C1417.69 263.507 1419.37 261.823 1421.45 261.823ZM1233.68 151.705C1235.23 151.705 1236.53 153 1236.53 154.425C1236.53 155.98 1235.23 157.146 1233.68 157.146C1232.12 157.146 1230.83 155.85 1230.83 154.425C1230.83 153 1232.12 151.705 1233.68 151.705ZM1239.9 122.426C1241.84 122.426 1243.4 123.981 1243.4 125.795C1243.4 127.608 1241.84 129.163 1239.9 129.163C1237.96 129.163 1236.4 127.608 1236.4 125.795C1236.4 123.981 1237.96 122.426 1239.9 122.426ZM1252.99 145.098C1253.76 145.098 1254.41 145.745 1254.41 146.523C1254.41 147.3 1253.76 147.948 1252.99 147.948C1252.21 147.948 1251.56 147.3 1251.56 146.523C1251.56 145.745 1252.21 145.098 1252.99 145.098ZM1257 121.001C1258.56 121.001 1259.86 122.297 1259.86 123.592C1259.86 125.017 1258.56 126.183 1257 126.183C1255.45 126.183 1254.15 124.888 1254.15 123.592C1254.28 122.297 1255.71 121.001 1257 121.001ZM1271.52 138.361C1272.68 138.361 1273.59 139.268 1273.59 140.304C1273.59 141.47 1272.68 142.248 1271.52 142.248C1270.35 142.248 1269.44 141.341 1269.44 140.304C1269.44 139.268 1270.48 138.361 1271.52 138.361ZM1354.32 69.1807C1356.27 69.1807 1357.82 70.7353 1357.82 72.549C1357.82 74.3627 1356.27 75.9173 1354.32 75.9173C1352.38 75.9173 1350.82 74.3627 1350.82 72.549C1350.82 70.7353 1352.38 69.1807 1354.32 69.1807ZM1345.9 50.5253C1347.06 50.5253 1347.97 51.4322 1347.97 52.4686C1347.97 53.6346 1347.06 54.4119 1345.9 54.4119C1344.73 54.4119 1343.83 53.505 1343.83 52.4686C1343.83 51.4322 1344.86 50.5253 1345.9 50.5253ZM1375.57 57.1324C1377.13 57.1324 1378.29 58.4279 1378.29 59.853C1378.29 61.4076 1377 62.5736 1375.57 62.5736C1374.02 62.5736 1372.85 61.2781 1372.85 59.853C1372.85 58.2984 1374.15 57.1324 1375.57 57.1324ZM1383.87 74.3627C1384.64 74.3627 1385.29 75.0105 1385.29 75.7878C1385.29 76.5651 1384.64 77.2129 1383.87 77.2129C1383.09 77.2129 1382.44 76.5651 1382.44 75.7878C1382.44 75.0105 1383.09 74.3627 1383.87 74.3627Z" fill="white"/>
<path opacity="0.7" d="M408.364 1306.26C977.494 1306.26 1438.94 861.256 1438.94 312.348C1438.94 -236.56 977.494 -681.568 408.364 -681.568C-160.766 -681.568 -622.212 -236.43 -622.212 312.478C-622.212 861.386 -160.766 1306.26 408.364 1306.26Z" fill="url(#paint3_radial)"/>
<path d="M2204 -10.3641H-284V1133.05H2204V-10.3641Z" fill="url(#paint4_linear)"/>
</g>
<defs>
<radialGradient id="paint0_radial" cx="0" cy="0" r="1" gradientUnits="userSpaceOnUse" gradientTransform="translate(959.401 1132.75) scale(1932.09 1645.77)">
<stop offset="0.104" stop-color="white"/>
<stop offset="0.645" stop-color="#B5F0EF"/>
<stop offset="1" stop-color="#A18EE1"/>
</radialGradient>
<linearGradient id="paint1_linear" x1="-548.057" y1="1071.99" x2="344.612" y2="28.9237" gradientUnits="userSpaceOnUse">
<stop stop-color="#A18CE3"/>
<stop offset="1" stop-color="#A18CE3" stop-opacity="0"/>
</linearGradient>
<linearGradient id="paint2_linear" x1="7234.65" y1="3064.56" x2="7308.11" y2="3093.06" gradientUnits="userSpaceOnUse">
<stop stop-color="#A18CE3"/>
<stop offset="1" stop-color="#A18CE3" stop-opacity="0"/>
</linearGradient>
<radialGradient id="paint3_radial" cx="0" cy="0" r="1" gradientUnits="userSpaceOnUse" gradientTransform="translate(399.461 319.409) scale(918.176 885.458)">
<stop stop-color="white"/>
<stop offset="1" stop-color="white" stop-opacity="0"/>
</radialGradient>
<linearGradient id="paint4_linear" x1="960" y1="1133.12" x2="960" y2="-112.347" gradientUnits="userSpaceOnUse">
<stop stop-color="white"/>
<stop offset="1" stop-color="white" stop-opacity="0"/>
</linearGradient>
</defs>
</svg>
