<svg width="42" height="38" viewBox="0 0 42 38" fill="none" xmlns="http://www.w3.org/2000/svg">
<g clip-path="url(#clip0)">
<path d="M20.4437 11.0037L7.00002 22.2738V34.4375C7.00002 34.7524 7.12294 35.0545 7.34173 35.2772C7.56052 35.4999 7.85727 35.625 8.16669 35.625L16.3377 35.6035C16.6461 35.6019 16.9414 35.4761 17.1589 35.2536C17.3764 35.031 17.4986 34.7299 17.4986 34.416V27.3125C17.4986 26.9976 17.6215 26.6955 17.8403 26.4728C18.0591 26.2501 18.3558 26.125 18.6652 26.125H23.3319C23.6413 26.125 23.9381 26.2501 24.1569 26.4728C24.3756 26.6955 24.4986 26.9976 24.4986 27.3125V34.4108C24.4981 34.567 24.5279 34.7219 24.5863 34.8664C24.6447 35.0109 24.7306 35.1422 24.839 35.2529C24.9474 35.3635 25.0761 35.4513 25.2179 35.5112C25.3597 35.5712 25.5117 35.602 25.6652 35.602L33.8334 35.625C34.1428 35.625 34.4395 35.4999 34.6583 35.2772C34.8771 35.0545 35 34.7524 35 34.4375V22.2656L21.5593 11.0037C21.4013 10.874 21.2044 10.8033 21.0015 10.8033C20.7985 10.8033 20.6017 10.874 20.4437 11.0037ZM41.6792 18.6638L35.5834 13.5494V3.26933C35.5834 3.03312 35.4912 2.80659 35.3271 2.63957C35.163 2.47254 34.9404 2.37871 34.7084 2.37871H30.625C30.393 2.37871 30.1704 2.47254 30.0063 2.63957C29.8422 2.80659 29.75 3.03312 29.75 3.26933V8.65836L23.2218 3.1914C22.5953 2.66666 21.8092 2.37976 20.9978 2.37976C20.1865 2.37976 19.4004 2.66666 18.7739 3.1914L0.316483 18.6638C0.22788 18.7383 0.154575 18.8299 0.100757 18.9333C0.0469387 19.0367 0.0136616 19.1499 0.00282721 19.2663C-0.00800719 19.3828 0.00381341 19.5003 0.0376136 19.6122C0.0714138 19.724 0.126531 19.8279 0.199816 19.9181L2.05919 22.2189C2.13228 22.3093 2.22217 22.3842 2.32373 22.4393C2.42529 22.4943 2.53652 22.5284 2.65105 22.5397C2.76558 22.5509 2.88116 22.539 2.99118 22.5048C3.1012 22.4705 3.2035 22.4144 3.29221 22.3398L20.4437 7.9607C20.6017 7.83106 20.7985 7.76036 21.0015 7.76036C21.2044 7.76036 21.4013 7.83106 21.5593 7.9607L38.7115 22.3398C38.8 22.4144 38.9022 22.4705 39.012 22.5049C39.1219 22.5393 39.2374 22.5514 39.3518 22.5404C39.4662 22.5293 39.5774 22.4955 39.679 22.4407C39.7806 22.3859 39.8705 22.3113 39.9438 22.2211L41.8031 19.9203C41.8763 19.8297 41.9312 19.7252 41.9646 19.6128C41.998 19.5005 42.0093 19.3826 41.9978 19.2658C41.9863 19.1491 41.9522 19.0358 41.8975 18.9324C41.8428 18.8291 41.7686 18.7378 41.6792 18.6638Z" fill="#646464"/>
</g>
<defs>
<clipPath id="clip0">
<rect width="42" height="38" fill="white"/>
</clipPath>
</defs>
</svg>
