<svg width="47" height="37" viewBox="0 0 47 37" fill="none" xmlns="http://www.w3.org/2000/svg">
<path d="M45.825 32.3759H39.95V8.19944C39.95 6.22948 38.3689 4.62591 36.425 4.62591H28.2V9.25091H35.25V37.0009H45.825C46.4742 37.0009 47 36.4835 47 35.8447V33.5322C47 32.8933 46.4742 32.3759 45.825 32.3759ZM22.9301 0.0738944L8.83012 3.66839C7.78364 3.93505 7.05 4.89329 7.05 5.99317V32.3759H1.175C0.525812 32.3759 0 32.8933 0 33.5322V35.8447C0 36.4835 0.525812 37.0009 1.175 37.0009H25.85V2.39868C25.85 0.839188 24.4136 -0.304777 22.9301 0.0738944ZM19.3875 20.8134C18.4145 20.8134 17.625 19.7778 17.625 18.5009C17.625 17.224 18.4145 16.1884 19.3875 16.1884C20.3605 16.1884 21.15 17.224 21.15 18.5009C21.15 19.7778 20.3605 20.8134 19.3875 20.8134Z" fill="#F9AA33"/>
</svg>
