<svg width="27" height="28" viewBox="0 0 27 28" fill="none" xmlns="http://www.w3.org/2000/svg">
<path d="M13.5 17.728C15.83 17.728 17.7188 15.8382 17.7188 13.5071C17.7188 11.1759 15.83 9.28613 13.5 9.28613C11.17 9.28613 9.28125 11.1759 9.28125 13.5071C9.28125 15.8382 11.17 17.728 13.5 17.728Z" stroke="#646464" stroke-width="2" stroke-miterlimit="10"/>
<path d="M18.1406 3.79883H8.85938C6.06343 3.79883 3.79688 6.06656 3.79688 8.86394V18.15C3.79688 20.9474 6.06343 23.2151 8.85938 23.2151H18.1406C20.9366 23.2151 23.2031 20.9474 23.2031 18.15V8.86394C23.2031 6.06656 20.9366 3.79883 18.1406 3.79883Z" stroke="#646464" stroke-width="2" stroke-linecap="round" stroke-linejoin="round"/>
<path d="M18.9844 9.28598C19.6834 9.28598 20.25 8.71904 20.25 8.0197C20.25 7.32035 19.6834 6.75342 18.9844 6.75342C18.2854 6.75342 17.7188 7.32035 17.7188 8.0197C17.7188 8.71904 18.2854 9.28598 18.9844 9.28598Z" fill="#646464"/>
</svg>
