<svg width="19" height="24" viewBox="0 0 19 24" fill="none" xmlns="http://www.w3.org/2000/svg">
<g clip-path="url(#clip0)">
<path d="M8.52368 23.5158C1.33445 13.6421 0 12.6287 0 9C0 4.02942 4.25328 0 9.5 0C14.7467 0 19 4.02942 19 9C19 12.6287 17.6655 13.6421 10.4763 23.5158C10.0045 24.1614 8.99541 24.1614 8.52368 23.5158ZM9.5 12.75C11.6861 12.75 13.4583 11.0711 13.4583 9C13.4583 6.92892 11.6861 5.25 9.5 5.25C7.31386 5.25 5.54167 6.92892 5.54167 9C5.54167 11.0711 7.31386 12.75 9.5 12.75Z" fill="#646464"/>
</g>
<defs>
<clipPath id="clip0">
<rect width="19" height="24" fill="white"/>
</clipPath>
</defs>
</svg>
