<svg width="29" height="39" viewBox="0 0 29 39" fill="none" xmlns="http://www.w3.org/2000/svg">
<g clip-path="url(#clip0)">
<path d="M13.0098 38.2131C2.0368 22.1684 0 20.5217 0 14.625C0 6.54781 6.49185 0 14.5 0C22.5082 0 29 6.54781 29 14.625C29 20.5217 26.9632 22.1684 15.9902 38.2131C15.2701 39.2623 13.7298 39.2623 13.0098 38.2131ZM14.5 20.7188C17.8367 20.7188 20.5417 17.9905 20.5417 14.625C20.5417 11.2595 17.8367 8.53125 14.5 8.53125C11.1633 8.53125 8.45833 11.2595 8.45833 14.625C8.45833 17.9905 11.1633 20.7188 14.5 20.7188Z" fill="#646464"/>
</g>
<defs>
<clipPath id="clip0">
<rect width="29" height="39" fill="white"/>
</clipPath>
</defs>
</svg>
