<svg width="48" height="38" viewBox="0 0 48 38" fill="none" xmlns="http://www.w3.org/2000/svg">
<g clip-path="url(#clip0)">
<path d="M14.0726 23.0509C14.3354 23.2928 15.2059 23.75 16.625 23.75C18.0441 23.75 18.9154 23.2928 19.1774 23.0509C20.3664 21.9547 21.7379 21.375 23.1451 21.375H24.3549C25.7621 21.375 27.1344 21.9547 28.3226 23.0509C28.5854 23.2928 29.4559 23.75 30.875 23.75C32.2941 23.75 33.1654 23.2928 33.4274 23.0509C34.5303 22.0333 35.7935 21.4834 37.093 21.4062L28.7182 15.4242L30.0541 14.4697C30.3243 14.2782 30.6687 14.2085 30.9908 14.276L38.4386 15.8739C40.3616 16.2844 42.2564 15.0598 42.6691 13.1367C43.081 11.213 41.8564 9.31893 39.9319 8.90628L32.4841 7.30835C30.2033 6.81999 27.8068 7.31725 25.9112 8.67249L19.9723 12.9156C19.2019 13.4641 18.5354 14.1357 17.9891 14.915L12.8955 22.1914C13.3015 22.4312 13.6986 22.7058 14.0726 23.0509ZM46.3125 26.125H45.125C43.1923 26.125 41.7258 25.5001 40.9621 24.7965C40.3015 24.1872 39.5029 23.75 38.6041 23.75H37.3944C36.4956 23.75 35.697 24.1872 35.0364 24.7965C34.2742 25.5001 32.8077 26.125 30.875 26.125C28.9423 26.125 27.4758 25.5001 26.7121 24.7965C26.0515 24.1872 25.2529 23.75 24.3541 23.75H23.1444C22.2456 23.75 21.447 24.1872 20.7864 24.7965C20.0242 25.5001 18.5577 26.125 16.625 26.125C14.6923 26.125 13.2258 25.5001 12.4621 24.7965C11.8015 24.1872 11.0029 23.75 10.1041 23.75H8.89437C7.99559 23.75 7.19699 24.1872 6.53645 24.7965C5.77422 25.5001 4.30766 26.125 2.375 26.125H1.1875C0.531406 26.125 0 26.6564 0 27.3125V29.6875C0 30.3436 0.531406 30.875 1.1875 30.875H2.375C5.24133 30.875 7.77219 29.9703 9.5 28.5119C11.2278 29.971 13.7587 30.875 16.625 30.875C19.4913 30.875 22.0222 29.9703 23.75 28.5119C25.4778 29.971 28.0087 30.875 30.875 30.875C33.7413 30.875 36.2722 29.9703 38 28.5119C39.7278 29.971 42.2587 30.875 45.125 30.875H46.3125C46.9686 30.875 47.5 30.3436 47.5 29.6875V27.3125C47.5 26.6564 46.9686 26.125 46.3125 26.125ZM8.3125 19C11.5915 19 14.25 16.3415 14.25 13.0625C14.25 9.78354 11.5915 7.12503 8.3125 7.12503C5.03352 7.12503 2.375 9.78354 2.375 13.0625C2.375 16.3415 5.03352 19 8.3125 19Z" fill="#646464"/>
</g>
<defs>
<clipPath id="clip0">
<rect width="47.5" height="38" fill="white"/>
</clipPath>
</defs>
</svg>
