<svg width="25" height="21" viewBox="0 0 25 21" fill="none" xmlns="http://www.w3.org/2000/svg">
<path d="M24 3.31883C23.0978 4.5784 21.9722 5.67073 20.6762 6.54436L20.6762 6.54435C20.5942 8.75374 19.9328 10.9058 18.7553 12.795C17.5777 14.6842 15.9233 16.2475 13.9498 17.3358C11.9764 18.424 9.74985 19.0008 7.48277 19.0111C5.21569 19.0214 2.98375 18.4648 1 17.3946L1.00067 17.3934C3.59111 17.3584 6.11367 16.5805 8.25378 15.1567L8.2537 15.1569C5.96279 13.6342 4.21797 11.4506 3.26384 8.91213C2.30971 6.37368 2.19412 3.60769 2.93328 1.00195L2.93324 1.00198C3.9919 2.59189 5.39614 3.93532 7.04646 4.93711C8.69679 5.93889 10.5528 6.57452 12.4831 6.79895L12.4828 6.79901C12.2795 5.85408 12.4298 4.8694 12.9066 4.02319C13.3833 3.17697 14.1549 2.52512 15.0817 2.18562C16.0085 1.84612 17.0294 1.84139 17.9595 2.17229C18.8896 2.50319 19.6675 3.14785 20.1525 3.98961L20.1525 3.99006C21.4618 3.95195 22.7583 3.72578 24 3.31883" stroke="#646464" stroke-width="2" stroke-linecap="round" stroke-linejoin="round"/>
</svg>
