<svg width="26" height="29" viewBox="0 0 26 29" fill="none" xmlns="http://www.w3.org/2000/svg">
<path d="M22.1058 5.29842C19.6741 2.91951 16.4357 1.61111 12.9942 1.61111C5.89062 1.61111 0.110268 7.25252 0.110268 14.1853C0.110268 16.4 0.702232 18.5637 1.82812 20.4724L0 26.9861L6.8308 25.2359C8.71116 26.2385 10.8295 26.7652 12.9884 26.7652H12.9942C20.092 26.7652 26 21.1238 26 14.191C26 10.8322 24.5375 7.67733 22.1058 5.29842ZM12.9942 24.6469C11.0674 24.6469 9.18125 24.1428 7.53884 23.1912L7.15 22.9646L3.09911 24.0012L4.17857 20.1439L3.92321 19.7474C2.84955 18.0822 2.28661 16.1621 2.28661 14.1853C2.28661 8.42498 7.09196 3.73514 13 3.73514C15.8612 3.73514 18.5482 4.82264 20.5679 6.7994C22.5875 8.77615 23.8295 11.3986 23.8237 14.191C23.8237 19.957 18.8964 24.6469 12.9942 24.6469ZM18.8674 16.8191C18.5482 16.6605 16.9638 15.9015 16.6679 15.7996C16.3719 15.692 16.1571 15.641 15.9424 15.9582C15.7277 16.2754 15.1125 16.9777 14.921 17.193C14.7353 17.4025 14.5437 17.4308 14.2246 17.2722C12.3326 16.349 11.0906 15.624 9.84286 13.534C9.51205 12.9789 10.1737 13.0185 10.7888 11.8178C10.8933 11.6082 10.8411 11.4269 10.7598 11.2683C10.6786 11.1097 10.0344 9.56346 9.76741 8.93475C9.50625 8.32303 9.23929 8.40799 9.04196 8.39666C8.85625 8.38533 8.64152 8.38533 8.42679 8.38533C8.21205 8.38533 7.86384 8.46463 7.56786 8.77615C7.27187 9.09334 6.44196 9.85233 6.44196 11.3986C6.44196 12.9449 7.59688 14.4402 7.75357 14.6498C7.91607 14.8594 10.0228 18.0312 13.2554 19.3963C15.2982 20.2572 16.0991 20.3308 17.1205 20.1836C17.7415 20.093 19.0241 19.4246 19.2911 18.6883C19.558 17.9519 19.558 17.3232 19.4768 17.193C19.4013 17.0514 19.1866 16.9721 18.8674 16.8191Z" fill="#00A510"/>
</svg>
