<svg width="57" height="60" viewBox="0 0 57 60" fill="none" xmlns="http://www.w3.org/2000/svg">
<rect x="3.92001" y="2.78003" width="50.3" height="50.3" rx="25.15" fill="#40A20C" stroke="white"/>
<g clip-path="url(#clip0)">
<path d="M41.5298 27.0447C41.5361 24.0333 40.1572 21.2271 37.9482 19.1271C35.7272 17.0157 32.7751 15.8576 29.64 15.8576C23.1725 15.8576 17.8662 20.8498 17.8662 27.0384C17.8662 29.1578 18.488 31.2164 19.6718 32.9998L19.8127 33.2122L18.7408 36.9324L18.5008 37.7651L19.3418 37.5561L23.4112 36.5448L23.6469 36.6782L23.648 36.6788C25.4527 37.6943 27.5222 38.2308 29.6339 38.2308C36.0879 38.2308 41.5295 33.2457 41.5298 27.0447ZM41.5298 27.0447C41.5298 27.0446 41.5298 27.0444 41.5298 27.0442H41.0298L41.5298 27.0453C41.5298 27.0451 41.5298 27.0449 41.5298 27.0447ZM18.3641 33.6031L18.425 33.3923L18.3111 33.2047C17.1733 31.3312 16.576 29.2094 16.576 27.0384C16.576 20.2536 22.4093 14.6867 29.6339 14.6867C33.1313 14.6867 36.4146 15.9775 38.8777 18.3179C41.3501 20.6671 42.82 23.7652 42.82 27.0442C42.82 33.823 36.8587 39.3959 29.6339 39.3959H29.6278C27.4345 39.3959 25.2844 38.8761 23.378 37.8889L23.2105 37.8021L23.0274 37.8477L16.6812 39.427L18.3641 33.6031ZM35.597 30.1806L35.597 30.1807L35.6034 30.1837C35.6604 30.2102 35.7173 30.236 35.7677 30.2588C35.7927 30.2701 35.8161 30.2808 35.8372 30.2904C35.9057 30.3217 35.9559 30.3456 35.9956 30.3668C35.9986 30.3684 36.0015 30.3699 36.0042 30.3714C36.0069 30.4263 36.006 30.503 35.9973 30.5995C35.9768 30.8266 35.9165 31.1316 35.7917 31.4659C35.7131 31.6765 35.4321 31.961 34.9979 32.2252C34.5792 32.4801 34.1435 32.6403 33.9059 32.674C33.4066 32.7439 32.9824 32.7593 32.4337 32.661C31.8712 32.5602 31.1611 32.3367 30.0984 31.9018C27.0802 30.6639 25.0265 27.8961 24.5841 27.2998C24.552 27.2566 24.5284 27.2248 24.5135 27.2058C24.5097 27.2009 24.5055 27.1954 24.5007 27.1892C24.4006 27.0599 24.0957 26.6657 23.8081 26.1281C23.5005 25.5534 23.2389 24.8617 23.2389 24.1902C23.2389 22.9207 23.8749 22.2734 24.215 21.9272C24.2391 21.9027 24.2617 21.8797 24.2825 21.8581C24.4819 21.6552 24.7088 21.6104 24.8276 21.6104C25.0576 21.6104 25.2676 21.6106 25.4453 21.6211L25.4471 21.6212C25.4872 21.6235 25.5268 21.6234 25.5516 21.6233L25.5569 21.6233C25.5861 21.6233 25.6019 21.6234 25.616 21.6242C25.6218 21.6245 25.6261 21.6249 25.629 21.6252C25.6479 21.6409 25.7042 21.6996 25.7804 21.8728C25.8631 22.062 25.9799 22.3317 26.1061 22.6232C26.194 22.8261 26.2864 23.0396 26.3751 23.2439C26.5836 23.7238 26.786 24.1873 26.8404 24.2903C26.8688 24.3443 26.8737 24.3685 26.8744 24.3752C26.8745 24.3754 26.8745 24.3755 26.8745 24.3757C26.874 24.3774 26.8727 24.3816 26.8692 24.3886C26.6186 24.8626 26.3698 25.1098 26.1642 25.314C26.1375 25.3405 26.1115 25.3664 26.0863 25.3918L26.0836 25.3947C25.9878 25.4916 25.819 25.6626 25.7536 25.898C25.6743 26.1836 25.7697 26.4357 25.8915 26.6342L25.8917 26.6345C26.5759 27.7476 27.2701 28.5145 28.0637 29.1263C28.8491 29.7317 29.7159 30.172 30.7129 30.6446C30.9163 30.7425 31.1526 30.8205 31.4062 30.7906C31.6789 30.7585 31.8806 30.6138 32.0301 30.4502C32.2226 30.24 32.8971 29.4942 33.1465 29.1363L32.7363 28.8504L33.1465 29.1363C33.1545 29.1248 33.1615 29.1157 33.1673 29.1086C33.1688 29.1089 33.1703 29.1093 33.1719 29.1096C33.2093 29.118 33.258 29.1332 33.3332 29.1598L33.3332 29.1598L33.3411 29.1625C33.4649 29.2039 33.928 29.4086 34.4402 29.6425C34.9366 29.8691 35.4337 30.1018 35.597 30.1806ZM35.9975 30.3038C35.9965 30.3003 35.9962 30.2984 35.9962 30.2984C35.9963 30.2983 35.9968 30.3001 35.9975 30.3038ZM25.6222 21.6203C25.6222 21.6202 25.6233 21.6208 25.6255 21.6224C25.6232 21.6212 25.6221 21.6204 25.6222 21.6203Z" fill="white" stroke="white"/>
</g>
<defs>
<clipPath id="clip0">
<rect width="27.36" height="29.64" fill="white" transform="translate(15.96 12.54)"/>
</clipPath>
</defs>
</svg>
